<?xml version="1.0" encoding="UTF-8" standalone="no"?>
<!-- Created with Inkscape (http://www.inkscape.org/) -->

<svg
   xmlns:dc="http://purl.org/dc/elements/1.1/"
   xmlns:cc="http://creativecommons.org/ns#"
   xmlns:rdf="http://www.w3.org/1999/02/22-rdf-syntax-ns#"
   xmlns:svg="http://www.w3.org/2000/svg"
   xmlns="http://www.w3.org/2000/svg"
   xmlns:sodipodi="http://sodipodi.sourceforge.net/DTD/sodipodi-0.dtd"
   xmlns:inkscape="http://www.inkscape.org/namespaces/inkscape"
   width="150"
   height="150"
   id="svg2"
   version="1.1"
   inkscape:version="0.48.2 r9819"
   sodipodi:docname="fit.svg">
  <defs
     id="defs4" />
  <sodipodi:namedview
     id="base"
     pagecolor="#ffffff"
     bordercolor="#666666"
     borderopacity="1.0"
     inkscape:pageopacity="0.0"
     inkscape:pageshadow="2"
     inkscape:zoom="1.4"
     inkscape:cx="88.916304"
     inkscape:cy="25.509158"
     inkscape:document-units="px"
     inkscape:current-layer="text3890"
     showgrid="false"
     inkscape:window-width="1366"
     inkscape:window-height="717"
     inkscape:window-x="-1"
     inkscape:window-y="-10"
     inkscape:window-maximized="1"
     fit-margin-top="0"
     fit-margin-left="0"
     fit-margin-right="0"
     fit-margin-bottom="0" />
  <metadata
     id="metadata7">
    <rdf:RDF>
      <cc:Work
         rdf:about="">
        <dc:format>image/svg+xml</dc:format>
        <dc:type
           rdf:resource="http://purl.org/dc/dcmitype/StillImage" />
        <dc:title></dc:title>
      </cc:Work>
    </rdf:RDF>
  </metadata>
  <g
     inkscape:label="Capa 1"
     inkscape:groupmode="layer"
     id="layer1"
     transform="translate(0,-9.375)">
    <g
       transform="matrix(2.3769515,0,0,2.3047711,-145.60132,-47.045786)"
       style="font-size:40px;font-style:normal;font-weight:normal;line-height:125%;letter-spacing:0px;word-spacing:0px;fill:#ffffff;fill-opacity:1;stroke:#000000;stroke-opacity:1;font-family:Sans"
       id="text3890">
      <g
         id="g3905"
         transform="translate(-0.42070076,0)">
        <path
           style="fill:#ffffff;fill-opacity:1;stroke:#000000;stroke-width:1.27499545;stroke-opacity:1"
           inkscape:connector-curvature="0"
           id="path3895"
           d="m 65.379483,69.736289 8.325189,0 0,-27.997608 -9.056796,1.769822 0,-4.522879 9.006339,-1.769823 5.096025,0 0,32.520488 8.325188,0 0,4.178748 -21.695945,0 0,-4.178748" />
        <path
           sodipodi:nodetypes="cccccccccc"
           id="path3897"
           style="fill:#ffffff;fill-opacity:1;stroke:#000000;stroke-width:1.24320841;stroke-opacity:1"
           inkscape:connector-curvature="0"
           d="m 91.209859,61.211564 5.091291,0 0,5.120804 -5.091291,0 0,-5.120804 m 0,-12.070919 5.091291,0 0,5.120806 -5.091291,0 0,-5.120806" />
        <path
           style="fill:#ffffff;fill-opacity:1;stroke:#000000;stroke-width:1.27499461;stroke-opacity:1"
           inkscape:connector-curvature="0"
           id="path3899"
           d="m 100.11462,69.736289 8.32518,0 0,-27.997609 -9.056799,1.769824 0,-4.522881 9.006349,-1.769822 5.09602,0 0,32.520488 8.32517,0 0,4.178748 -21.69592,0 0,-4.178748" />
      </g>
    </g>
  </g>
</svg>
