<?xml version="1.0" encoding="UTF-8" standalone="no"?>
<!-- Created with Inkscape (http://www.inkscape.org/) -->

<svg
   xmlns:dc="http://purl.org/dc/elements/1.1/"
   xmlns:cc="http://creativecommons.org/ns#"
   xmlns:rdf="http://www.w3.org/1999/02/22-rdf-syntax-ns#"
   xmlns:svg="http://www.w3.org/2000/svg"
   xmlns="http://www.w3.org/2000/svg"
   xmlns:sodipodi="http://sodipodi.sourceforge.net/DTD/sodipodi-0.dtd"
   xmlns:inkscape="http://www.inkscape.org/namespaces/inkscape"
   width="89.634003"
   height="88.765862"
   id="svg2"
   version="1.1"
   inkscape:version="0.48.2 r9819"
   sodipodi:docname="loading_base.svg"
   inkscape:export-filename="/home/amillara/Desktop/loading_base15.png"
   inkscape:export-xdpi="50.204163"
   inkscape:export-ydpi="50.204163">
  <defs
     id="defs4" />
  <sodipodi:namedview
     id="base"
     pagecolor="#ffffff"
     bordercolor="#666666"
     borderopacity="1.0"
     inkscape:pageopacity="0.0"
     inkscape:pageshadow="2"
     inkscape:zoom="3.335262"
     inkscape:cx="21.833372"
     inkscape:cy="30.396702"
     inkscape:document-units="px"
     inkscape:current-layer="layer1"
     showgrid="false"
     fit-margin-top="0"
     fit-margin-left="0"
     fit-margin-right="0"
     fit-margin-bottom="0"
     inkscape:window-width="1366"
     inkscape:window-height="717"
     inkscape:window-x="-1"
     inkscape:window-y="-10"
     inkscape:window-maximized="1" />
  <metadata
     id="metadata7">
    <rdf:RDF>
      <cc:Work
         rdf:about="">
        <dc:format>image/svg+xml</dc:format>
        <dc:type
           rdf:resource="http://purl.org/dc/dcmitype/StillImage" />
        <dc:title></dc:title>
      </cc:Work>
    </rdf:RDF>
  </metadata>
  <g
     inkscape:label="Capa 1"
     inkscape:groupmode="layer"
     id="layer1"
     transform="translate(-5.3040006,2.2348174)">
    <path
       sodipodi:type="arc"
       style="fill:#ffffff;fill-opacity:1;stroke:none"
       id="path3815"
       sodipodi:cx="37.410713"
       sodipodi:cy="38.701466"
       sodipodi:rx="8.3035717"
       sodipodi:ry="8.3035717"
       d="m 45.714285,38.701466 a 8.3035717,8.3035717 0 1 1 -16.607144,0 8.3035717,8.3035717 0 1 1 16.607144,0 z"
       transform="matrix(0.60215052,0,0,0.60215052,27.540116,-20.538927)" />
    <path
       sodipodi:type="arc"
       style="fill:#eeeeee;fill-opacity:1;stroke:none"
       id="path3815-6"
       sodipodi:cx="37.410713"
       sodipodi:cy="38.701466"
       sodipodi:rx="8.3035717"
       sodipodi:ry="8.3035717"
       d="m 45.714285,38.701466 a 8.3035717,8.3035717 0 1 1 -16.607144,0 8.3035717,8.3035717 0 1 1 16.607144,0 z"
       transform="matrix(0.60215052,0,0,0.60215052,43.019117,-17.74093)" />
    <path
       sodipodi:type="arc"
       style="fill:#dddddd;fill-opacity:1;stroke:none"
       id="path3815-6-7"
       sodipodi:cx="37.410713"
       sodipodi:cy="38.701466"
       sodipodi:rx="8.3035717"
       sodipodi:ry="8.3035717"
       d="m 45.714285,38.701466 a 8.3035717,8.3035717 0 1 1 -16.607144,0 8.3035717,8.3035717 0 1 1 16.607144,0 z"
       transform="matrix(0.60215052,0,0,0.60215052,55.713117,-9.1819162)" />
    <path
       sodipodi:type="arc"
       style="fill:#cccccc;fill-opacity:1;stroke:none"
       id="path3815-8"
       sodipodi:cx="37.410713"
       sodipodi:cy="38.701466"
       sodipodi:rx="8.3035717"
       sodipodi:ry="8.3035717"
       d="m 45.714285,38.701466 a 8.3035717,8.3035717 0 1 1 -16.607144,0 8.3035717,8.3035717 0 1 1 16.607144,0 z"
       transform="matrix(0.60215052,0,0,0.60215052,64.272117,3.5130831)" />
    <path
       sodipodi:type="arc"
       style="fill:#bbbbbb;fill-opacity:1;stroke:none"
       id="path3815-8-7"
       sodipodi:cx="37.410713"
       sodipodi:cy="38.701466"
       sodipodi:rx="8.3035717"
       sodipodi:ry="8.3035717"
       d="m 45.714285,38.701466 a 8.3035717,8.3035717 0 1 1 -16.607144,0 8.3035717,8.3035717 0 1 1 16.607144,0 z"
       transform="matrix(0.60215052,0,0,0.60215052,67.411118,19.058082)" />
    <path
       sodipodi:type="arc"
       style="fill:#000000;fill-opacity:1;stroke:none"
       id="path3815-6-8"
       sodipodi:cx="37.410713"
       sodipodi:cy="38.701466"
       sodipodi:rx="8.3035717"
       sodipodi:ry="8.3035717"
       d="m 45.714285,38.701466 a 8.3035717,8.3035717 0 1 1 -16.607144,0 8.3035717,8.3035717 0 1 1 16.607144,0 z"
       transform="matrix(-0.60215052,0,0,0.60215052,57.222878,-17.740915)" />
    <path
       sodipodi:type="arc"
       style="fill:#111111;fill-opacity:1;stroke:none"
       id="path3815-6-7-3"
       sodipodi:cx="37.410713"
       sodipodi:cy="38.701466"
       sodipodi:rx="8.3035717"
       sodipodi:ry="8.3035717"
       d="m 45.714285,38.701466 a 8.3035717,8.3035717 0 1 1 -16.607144,0 8.3035717,8.3035717 0 1 1 16.607144,0 z"
       transform="matrix(-0.60215052,0,0,0.60215052,44.528878,-9.1819152)" />
    <path
       sodipodi:type="arc"
       style="fill:#222222;fill-opacity:1;stroke:none"
       id="path3815-8-3"
       sodipodi:cx="37.410713"
       sodipodi:cy="38.701466"
       sodipodi:rx="8.3035717"
       sodipodi:ry="8.3035717"
       d="m 45.714285,38.701466 a 8.3035717,8.3035717 0 1 1 -16.607144,0 8.3035717,8.3035717 0 1 1 16.607144,0 z"
       transform="matrix(-0.60215052,0,0,0.60215052,35.969878,3.5130824)" />
    <path
       sodipodi:type="arc"
       style="fill:#333333;fill-opacity:1;stroke:none"
       id="path3815-8-7-1"
       sodipodi:cx="37.410713"
       sodipodi:cy="38.701466"
       sodipodi:rx="8.3035717"
       sodipodi:ry="8.3035717"
       d="m 45.714285,38.701466 a 8.3035717,8.3035717 0 1 1 -16.607144,0 8.3035717,8.3035717 0 1 1 16.607144,0 z"
       transform="matrix(-0.60215052,0,0,0.60215052,32.83088,19.058081)" />
    <path
       sodipodi:type="arc"
       style="fill:#777777;fill-opacity:1;stroke:none"
       id="path3815-0"
       sodipodi:cx="37.410713"
       sodipodi:cy="38.701466"
       sodipodi:rx="8.3035717"
       sodipodi:ry="8.3035717"
       d="m 45.714285,38.701466 a 8.3035717,8.3035717 0 1 1 -16.607144,0 8.3035717,8.3035717 0 1 1 16.607144,0 z"
       transform="matrix(0.60215052,0,0,-0.60215052,27.540123,104.83514)" />
    <path
       sodipodi:type="arc"
       style="fill:#888888;fill-opacity:1;stroke:none"
       id="path3815-6-3"
       sodipodi:cx="37.410713"
       sodipodi:cy="38.701466"
       sodipodi:rx="8.3035717"
       sodipodi:ry="8.3035717"
       d="m 45.714285,38.701466 a 8.3035717,8.3035717 0 1 1 -16.607144,0 8.3035717,8.3035717 0 1 1 16.607144,0 z"
       transform="matrix(0.60215052,0,0,-0.60215052,43.019116,102.03715)" />
    <path
       sodipodi:type="arc"
       style="fill:#999999;fill-opacity:1;stroke:none"
       id="path3815-6-7-8"
       sodipodi:cx="37.410713"
       sodipodi:cy="38.701466"
       sodipodi:rx="8.3035717"
       sodipodi:ry="8.3035717"
       d="m 45.714285,38.701466 a 8.3035717,8.3035717 0 1 1 -16.607144,0 8.3035717,8.3035717 0 1 1 16.607144,0 z"
       transform="matrix(0.60215052,0,0,-0.60215052,55.713116,93.478149)" />
    <path
       sodipodi:type="arc"
       style="fill:#aaaaaa;fill-opacity:1;stroke:none"
       id="path3815-8-75"
       sodipodi:cx="37.410713"
       sodipodi:cy="38.701466"
       sodipodi:rx="8.3035717"
       sodipodi:ry="8.3035717"
       d="m 45.714285,38.701466 a 8.3035717,8.3035717 0 1 1 -16.607144,0 8.3035717,8.3035717 0 1 1 16.607144,0 z"
       transform="matrix(0.60215052,0,0,-0.60215052,64.272118,80.783153)" />
    <path
       sodipodi:type="arc"
       style="fill:#666666;fill-opacity:1;stroke:none"
       id="path3815-6-8-5"
       sodipodi:cx="37.410713"
       sodipodi:cy="38.701466"
       sodipodi:rx="8.3035717"
       sodipodi:ry="8.3035717"
       d="m 45.714285,38.701466 a 8.3035717,8.3035717 0 1 1 -16.607144,0 8.3035717,8.3035717 0 1 1 16.607144,0 z"
       transform="matrix(-0.60215052,0,0,-0.60215052,57.222876,102.03716)" />
    <path
       sodipodi:type="arc"
       style="fill:#555555;fill-opacity:1;stroke:none"
       id="path3815-6-7-3-2"
       sodipodi:cx="37.410713"
       sodipodi:cy="38.701466"
       sodipodi:rx="8.3035717"
       sodipodi:ry="8.3035717"
       d="m 45.714285,38.701466 a 8.3035717,8.3035717 0 1 1 -16.607144,0 8.3035717,8.3035717 0 1 1 16.607144,0 z"
       transform="matrix(-0.60215052,0,0,-0.60215052,44.528879,93.478149)" />
    <path
       sodipodi:type="arc"
       style="fill:#444444;fill-opacity:1;stroke:none"
       id="path3815-8-3-0"
       sodipodi:cx="37.410713"
       sodipodi:cy="38.701466"
       sodipodi:rx="8.3035717"
       sodipodi:ry="8.3035717"
       d="m 45.714285,38.701466 a 8.3035717,8.3035717 0 1 1 -16.607144,0 8.3035717,8.3035717 0 1 1 16.607144,0 z"
       transform="matrix(-0.60215052,0,0,-0.60215052,35.969877,80.783149)" />
  </g>
</svg>
